[2024-12-02T16:19:24.194Z] Server log cleared for new stream
[2024-12-02T16:19:24.194Z] Cleared previous messages
[2024-12-02T16:19:24.194Z] Starting stream to: rtmps://live-api-s.facebook.com:443/rtmp/FB-2300527177012661-0-Abyb27J85Ec3XcQD
[2024-12-02T16:19:24.195Z] Using font: /System/Library/Fonts/Helvetica.ttc
[2024-12-02T16:19:24.195Z] FFmpeg command: ffmpeg -f concat -safe 0 -stream_loop -1 -i /Users/mac/project/fbstream/fbstream3 0.1.3 Dev/concat.txt -hide_banner -filter_complex [0:v]scale=1920:1080:force_original_aspect_ratio=decrease,pad=1920:1080:(ow-iw)/2:(oh-ih)/2[scaled];[scaled]drawtext=textfile='/Users/mac/project/fbstream/fbstream3\ 0.1.3\ Dev/messages.txt':fontfile='/System/Library/Fonts/Helvetica.ttc':fontsize=70:fontcolor=#ffffff:reload=1:x='if(lte(mod(t*200\,2*(W-tw))\,W-tw)\,mod(t*200\,W-tw)\,2*(W-tw)-mod(t*200\,2*(W-tw)))':y='if(lte(mod(t*100\,2*(H-th))\,H-th)\,mod(t*100\,H-th)\,2*(H-th)-mod(t*100\,2*(H-th)))'[withtext];[withtext]null[v] -map [v] -map 0:a:0? -c:v libx264 -preset ultrafast -g 60 -b:v 4000k -maxrate 4500k -bufsize 8000k -pix_fmt yuv420p -c:a aac -b:a 128k -ac 2 -ar 44100 -filter:a aresample=44100 -strict experimental -f flv rtmps://live-api-s.facebook.com:443/rtmp/FB-2300527177012661-0-Abyb27J85Ec3XcQD
[2024-12-02T16:19:24.197Z] Streaming started successfully
[2024-12-02T16:19:24.605Z] FFmpeg stderr: [mov,mp4,m4a,3gp,3g2,mj2 @ 0x15b30a500] Auto-inserting h264_mp4toannexb bitstream filter

[2024-12-02T16:19:24.656Z] FFmpeg stderr: Input #0, concat, from '/Users/mac/project/fbstream/fbstream3 0.1.3 Dev/concat.txt':
  Duration: N/A, start: -0.021333, bitrate: 409 kb/s
  Stream #0:0(und): Video: h264 (High) (avc1 / 0x31637661), yuv420p(tv, bt709, progressive), 2432x1210, 339 kb/s, 60 fps, 60 tbr, 15360 tbn
      Metadata:
        handler_name    : Core Media Video
        vendor_id       : [0][0][0][0]
        encoder         : Lavc61.3.100 libx264
  Stream #0:1(und): Audio: aac (LC) (mp4a / 0x6134706D), 48000 Hz, mono, fltp, 69 kb/s
      Metadata:
        handler_name    : Core Media Audio
        vendor_id       : [0][0][0][0]

[2024-12-02T16:19:27.487Z] FFmpeg stderr: Stream mapping:
  Stream #0:0 (h264) -> scale:default
  null:default -> Stream #0:0 (libx264)
  Stream #0:1 -> #0:1 (aac (native) -> aac (native))

[2024-12-02T16:19:27.488Z] FFmpeg stderr: Press [q] to stop, [?] for help

[2024-12-02T16:19:27.552Z] FFmpeg stderr: [libx264 @ 0x15b00eea0] using cpu capabilities: ARMv8 NEON

[2024-12-02T16:19:27.553Z] FFmpeg stderr: [libx264 @ 0x15b00eea0] profile Constrained Baseline, level 4.2, 4:2:0, 8-bit

[2024-12-02T16:19:27.553Z] FFmpeg stderr: [libx264 @ 0x15b00eea0] 264 - core 164 r3108 31e19f9 - H.264/MPEG-4 AVC codec - Copyleft 2003-2023 - http://www.videolan.org/x264.html - options: cabac=0 ref=1 deblock=0:0:0 analyse=0:0 me=dia subme=0 psy=1 psy_rd=1.00:0.00 mixed_ref=0 me_range=16 chroma_me=1 trellis=0 8x8dct=0 cqm=0 deadzone=21,11 fast_pskip=1 chroma_qp_offset=0 threads=12 lookahead_threads=2 sliced_threads=0 nr=0 decimate=1 interlaced=0 bluray_compat=0 constrained_intra=0 bframes=0 weightp=0 keyint=60 keyint_min=6 scenecut=0 intra_refresh=0 rc_lookahead=0 rc=abr mbtree=0 bitrate=4000 ratetol=1.0 qcomp=0.60 qpmin=0 qpmax=69 qpstep=4 vbv_maxrate=4500 vbv_bufsize=8000 nal_hrd=none filler=0 ip_ratio=1.40 aq=0
Output #0, flv, to 'rtmps://live-api-s.facebook.com:443/rtmp/FB-2300527177012661-0-Abyb27J85Ec3XcQD':
  Metadata:
    encoder         : Lavf61.7.100
  Stream #0:0: Video: h264 ([7][0][0][0] / 0x0007), yuv420p(tv, bt709, progressive), 1920x1080, q=2-31, 4000 kb/s, 60 fps, 1k tbn
      Metadata:
        encoder         : Lavc61.19.100 libx264
      Side data:
        cpb: bitrate max/min/avg: 4500000/0/4000000 buffer size: 8000000 
[2024-12-02T16:19:27.554Z] FFmpeg stderr: vbv_delay: N/A
  Stream #0:1(und): Audio: aac (LC) ([10][0][0][0] / 0x000A), 44100 Hz, stereo, fltp, 128 kb/s
      Metadata:
        handler_name    : Core Media Audio
        vendor_id       : [0][0][0][0]
        encoder         : Lavc61.19.100 aac

[2024-12-02T16:19:27.995Z] FFmpeg stderr: frame=   51 fps=0.0 q=16.0 size=     149KiB time=00:00:00.91 bitrate=1334.4kbits/s speed=1.81x    
[2024-12-02T16:19:28.497Z] FFmpeg stderr: frame=   61 fps= 60 q=10.0 size=     188KiB time=00:00:01.10 bitrate=1401.6kbits/s speed=1.09x    
[2024-12-02T16:19:28.998Z] FFmpeg stderr: frame=   61 fps= 40 q=10.0 size=     188KiB time=00:00:01.10 bitrate=1401.6kbits/s speed=0.728x    
[2024-12-02T16:19:29.501Z] FFmpeg stderr: frame=   61 fps= 30 q=10.0 size=     188KiB time=00:00:01.10 bitrate=1401.6kbits/s speed=0.546x    
[2024-12-02T16:19:30.001Z] FFmpeg stderr: frame=   83 fps= 33 q=7.0 size=     301KiB time=00:00:01.45 bitrate=1698.1kbits/s speed=0.577x    
[2024-12-02T16:19:30.506Z] FFmpeg stderr: frame=   86 fps= 28 q=6.0 size=     308KiB time=00:00:01.50 bitrate=1680.8kbits/s speed=0.497x    
[2024-12-02T16:19:31.008Z] FFmpeg stderr: frame=   95 fps= 27 q=5.0 size=     346KiB time=00:00:01.68 bitrate=1683.8kbits/s speed=0.478x    
[2024-12-02T16:19:31.513Z] FFmpeg stderr: frame=  113 fps= 28 q=8.0 size=     369KiB time=00:00:02.00 bitrate=1510.7kbits/s speed=0.497x    
[2024-12-02T16:19:32.019Z] FFmpeg stderr: frame=  121 fps= 27 q=5.0 size=     404KiB time=00:00:02.11 bitrate=1563.5kbits/s speed=0.467x    
[2024-12-02T16:19:32.584Z] FFmpeg stderr: frame=  121 fps= 24 q=5.0 size=     404KiB time=00:00:02.11 bitrate=1563.5kbits/s speed=0.42x    
[2024-12-02T16:19:33.705Z] FFmpeg stderr: frame=  121 fps= 22 q=5.0 size=     404KiB time=00:00:02.11 bitrate=1563.5kbits/s speed=0.38x    frame=  121 fps= 20 q=5.0 size=     404KiB time=00:00:02.11 bitrate=1563.5kbits/s speed=0.348x    
[2024-12-02T16:19:34.068Z] FFmpeg stderr: frame=  121 fps= 18 q=5.0 size=     404KiB time=00:00:02.11 bitrate=1563.5kbits/s speed=0.322x    
[2024-12-02T16:19:34.594Z] FFmpeg stderr: frame=  127 fps= 18 q=4.0 size=     542KiB time=00:00:02.18 bitrate=2034.6kbits/s speed=0.308x    
[2024-12-02T16:19:35.076Z] FFmpeg stderr: frame=  134 fps= 18 q=4.0 size=     580KiB time=00:00:02.33 bitrate=2035.3kbits/s speed=0.307x    
[2024-12-02T16:19:35.581Z] FFmpeg stderr: frame=  139 fps= 17 q=4.0 size=     613KiB time=00:00:02.41 bitrate=2078.0kbits/s speed=0.299x    
[2024-12-02T16:19:36.087Z] FFmpeg stderr: frame=  142 fps= 17 q=4.0 size=     640KiB time=00:00:02.46 bitrate=2126.1kbits/s speed=0.287x    
[2024-12-02T16:19:36.587Z] FFmpeg stderr: frame=  148 fps= 16 q=4.0 size=     689KiB time=00:00:02.55 bitrate=2215.0kbits/s speed=0.28x    
[2024-12-02T16:19:37.087Z] FFmpeg stderr: frame=  154 fps= 16 q=3.0 size=     737KiB time=00:00:02.60 bitrate=2322.9kbits/s speed=0.271x    
[2024-12-02T16:19:37.592Z] FFmpeg stderr: frame=  160 fps= 16 q=3.0 size=     778KiB time=00:00:02.75 bitrate=2318.3kbits/s speed=0.272x    
[2024-12-02T16:19:38.092Z] FFmpeg stderr: frame=  160 fps= 15 q=3.0 size=     778KiB time=00:00:02.75 bitrate=2318.3kbits/s speed=0.259x    
[2024-12-02T16:19:38.596Z] FFmpeg stderr: frame=  160 fps= 14 q=3.0 size=     778KiB time=00:00:02.75 bitrate=2318.3kbits/s speed=0.248x    
[2024-12-02T16:19:39.100Z] FFmpeg stderr: frame=  164 fps= 14 q=3.0 size=     794KiB time=00:00:02.81 bitrate=2308.9kbits/s speed=0.243x    
[2024-12-02T16:19:39.647Z] FFmpeg stderr: frame=  170 fps= 14 q=11.0 size=     815KiB time=00:00:02.88 bitrate=2314.5kbits/s speed=0.238x    
[2024-12-02T16:19:40.106Z] FFmpeg stderr: frame=  181 fps= 14 q=2.0 size=     829KiB time=00:00:03.10 bitrate=2190.2kbits/s speed=0.246x    
[2024-12-02T16:19:40.611Z] FFmpeg stderr: frame=  181 fps= 14 q=2.0 size=     829KiB time=00:00:03.10 bitrate=2190.2kbits/s speed=0.236x    
[2024-12-02T16:19:41.114Z] FFmpeg stderr: frame=  181 fps= 13 q=2.0 size=     829KiB time=00:00:03.10 bitrate=2190.2kbits/s speed=0.227x    
[2024-12-02T16:19:41.615Z] FFmpeg stderr: frame=  194 fps= 14 q=1.0 size=     973KiB time=00:00:03.36 bitrate=2368.6kbits/s speed=0.238x    
[2024-12-02T16:19:42.119Z] FFmpeg stderr: frame=  194 fps= 13 q=1.0 size=     973KiB time=00:00:03.36 bitrate=2368.6kbits/s speed=0.23x    
[2024-12-02T16:19:42.623Z] FFmpeg stderr: frame=  241 fps= 16 q=0.0 size=    1012KiB time=00:00:04.11 bitrate=2013.5kbits/s speed=0.272x    
[2024-12-02T16:19:43.128Z] FFmpeg stderr: frame=  241 fps= 15 q=0.0 size=    1012KiB time=00:00:04.11 bitrate=2013.5kbits/s speed=0.263x    
[2024-12-02T16:19:43.630Z] FFmpeg stderr: frame=  241 fps= 15 q=0.0 size=    1012KiB time=00:00:04.11 bitrate=2013.5kbits/s speed=0.255x    
[2024-12-02T16:19:44.130Z] FFmpeg stderr: frame=  241 fps= 14 q=0.0 size=    1012KiB time=00:00:04.11 bitrate=2013.5kbits/s speed=0.247x    
[2024-12-02T16:19:44.631Z] FFmpeg stderr: frame=  241 fps= 14 q=0.0 size=    1012KiB time=00:00:04.11 bitrate=2013.5kbits/s speed=0.24x    
[2024-12-02T16:19:45.133Z] FFmpeg stderr: frame=  251 fps= 14 q=1.0 size=    1166KiB time=00:00:04.28 bitrate=2229.6kbits/s speed=0.243x    
[2024-12-02T16:19:45.635Z] FFmpeg stderr: frame=  253 fps= 14 q=1.0 size=    1196KiB time=00:00:04.31 bitrate=2269.6kbits/s speed=0.238x    
[2024-12-02T16:19:46.139Z] FFmpeg stderr: frame=  257 fps= 14 q=1.0 size=    1243KiB time=00:00:04.38 bitrate=2323.7kbits/s speed=0.235x    
[2024-12-02T16:19:46.641Z] FFmpeg stderr: frame=  258 fps= 13 q=1.0 size=    1259KiB time=00:00:04.40 bitrate=2343.4kbits/s speed=0.23x    
[2024-12-02T16:19:47.145Z] FFmpeg stderr: frame=  259 fps= 13 q=0.0 size=    1272KiB time=00:00:04.41 bitrate=2359.9kbits/s speed=0.225x    
[2024-12-02T16:19:47.646Z] FFmpeg stderr: frame=  266 fps= 13 q=4.0 size=    1310KiB time=00:00:04.51 bitrate=2376.7kbits/s speed=0.224x    
[2024-12-02T16:19:48.148Z] FFmpeg stderr: frame=  282 fps= 14 q=2.0 size=    1338KiB time=00:00:04.80 bitrate=2283.8kbits/s speed=0.232x    
[2024-12-02T16:19:48.653Z] FFmpeg stderr: frame=  283 fps= 13 q=2.0 size=    1356KiB time=00:00:04.81 bitrate=2306.6kbits/s speed=0.228x    
[2024-12-02T16:19:49.156Z] FFmpeg stderr: frame=  287 fps= 13 q=9.0 size=    1404KiB time=00:00:04.86 bitrate=2363.3kbits/s speed=0.225x    
[2024-12-02T16:19:49.661Z] FFmpeg stderr: frame=  291 fps= 13 q=5.0 size=    1453KiB time=00:00:04.93 bitrate=2412.5kbits/s speed=0.222x    
[2024-12-02T16:19:50.165Z] FFmpeg stderr: frame=  294 fps= 13 q=5.0 size=    1488KiB time=00:00:04.96 bitrate=2455.0kbits/s speed=0.219x    
[2024-12-02T16:19:50.669Z] FFmpeg stderr: frame=  295 fps= 13 q=4.0 size=    1502KiB time=00:00:04.98 bitrate=2469.6kbits/s speed=0.215x    
[2024-12-02T16:19:51.174Z] FFmpeg stderr: frame=  298 fps= 13 q=3.0 size=    1540KiB time=00:00:05.06 bitrate=2490.7kbits/s speed=0.214x    
[2024-12-02T16:19:51.679Z] FFmpeg stderr: frame=  300 fps= 12 q=3.0 size=    1566KiB time=00:00:05.08 bitrate=2523.1kbits/s speed=0.21x    
[2024-12-02T16:19:52.181Z] FFmpeg stderr: frame=  301 fps= 12 q=3.0 size=    1580KiB time=00:00:05.10 bitrate=2537.9kbits/s speed=0.207x    
[2024-12-02T16:19:52.686Z] FFmpeg stderr: frame=  301 fps= 12 q=3.0 size=    1580KiB time=00:00:05.10 bitrate=2537.9kbits/s speed=0.202x    
[2024-12-02T16:19:53.187Z] FFmpeg stderr: frame=  301 fps= 12 q=3.0 size=    1580KiB time=00:00:05.10 bitrate=2537.9kbits/s speed=0.198x    
[2024-12-02T16:19:53.690Z] FFmpeg stderr: frame=  305 fps= 12 q=4.0 size=    1761KiB time=00:00:05.16 bitrate=2792.9kbits/s speed=0.197x    
[2024-12-02T16:19:54.195Z] FFmpeg stderr: frame=  309 fps= 12 q=5.0 size=    1799KiB time=00:00:05.21 bitrate=2824.8kbits/s speed=0.195x    
[2024-12-02T16:19:54.699Z] FFmpeg stderr: frame=  313 fps= 12 q=3.0 size=    1843KiB time=00:00:05.31 bitrate=2839.7kbits/s speed=0.195x    
[2024-12-02T16:19:55.203Z] FFmpeg stderr: frame=  316 fps= 11 q=3.0 size=    1880KiB time=00:00:05.35 bitrate=2878.7kbits/s speed=0.193x    
[2024-12-02T16:19:55.707Z] FFmpeg stderr: frame=  320 fps= 11 q=3.0 size=    1932KiB time=00:00:05.43 bitrate=2912.4kbits/s speed=0.193x    
[2024-12-02T16:19:56.209Z] FFmpeg stderr: frame=  324 fps= 11 q=3.0 size=    1983KiB time=00:00:05.50 bitrate=2953.8kbits/s speed=0.191x    
[2024-12-02T16:19:56.715Z] FFmpeg stderr: frame=  329 fps= 11 q=3.0 size=    2033KiB time=00:00:05.58 bitrate=2983.1kbits/s speed=0.191x    
[2024-12-02T16:19:57.216Z] FFmpeg stderr: frame=  333 fps= 11 q=2.0 size=    2057KiB time=00:00:05.63 bitrate=2991.2kbits/s speed=0.189x    
[2024-12-02T16:19:57.720Z] FFmpeg stderr: frame=  338 fps= 11 q=2.0 size=    2088KiB time=00:00:05.71 bitrate=2992.0kbits/s speed=0.189x    
[2024-12-02T16:19:58.286Z] FFmpeg stderr: frame=  344 fps= 11 q=2.0 size=    2126KiB time=00:00:05.81 bitrate=2993.8kbits/s speed=0.189x    
[2024-12-02T16:19:58.731Z] FFmpeg stderr: frame=  352 fps= 11 q=4.0 size=    2178KiB time=00:00:05.96 bitrate=2990.0kbits/s speed=0.191x    
[2024-12-02T16:19:59.231Z] FFmpeg stderr: frame=  356 fps= 11 q=2.0 size=    2201KiB time=00:00:06.03 bitrate=2988.4kbits/s speed=0.19x    
[2024-12-02T16:19:59.733Z] FFmpeg stderr: frame=  361 fps= 11 q=2.0 size=    2231KiB time=00:00:06.11 bitrate=2987.7kbits/s speed=0.19x    
[2024-12-02T16:20:00.254Z] FFmpeg stderr: frame=  361 fps= 11 q=2.0 size=    2231KiB time=00:00:06.11 bitrate=2987.7kbits/s speed=0.187x    
[2024-12-02T16:20:00.738Z] FFmpeg stderr: frame=  361 fps= 11 q=2.0 size=    2231KiB time=00:00:06.11 bitrate=2987.7kbits/s speed=0.184x    
[2024-12-02T16:20:01.242Z] FFmpeg stderr: frame=  361 fps= 11 q=2.0 size=    2231KiB time=00:00:06.11 bitrate=2987.7kbits/s speed=0.181x    
[2024-12-02T16:20:01.742Z] FFmpeg stderr: frame=  361 fps= 11 q=2.0 size=    2231KiB time=00:00:06.11 bitrate=2987.7kbits/s speed=0.179x    
[2024-12-02T16:20:02.244Z] FFmpeg stderr: frame=  367 fps= 11 q=2.0 size=    2399KiB time=00:00:06.20 bitrate=3169.2kbits/s speed=0.178x    
[2024-12-02T16:20:02.749Z] FFmpeg stderr: frame=  371 fps= 11 q=2.0 size=    2417KiB time=00:00:06.26 bitrate=3159.3kbits/s speed=0.178x    
[2024-12-02T16:20:03.249Z] FFmpeg stderr: frame=  377 fps= 11 q=2.0 size=    2449KiB time=00:00:06.40 bitrate=3135.2kbits/s speed=0.179x    
[2024-12-02T16:20:03.753Z] FFmpeg stderr: frame=  382 fps= 11 q=2.0 size=    2477KiB time=00:00:06.48 bitrate=3130.3kbits/s speed=0.179x    
[2024-12-02T16:20:04.254Z] FFmpeg stderr: frame=  388 fps= 11 q=2.0 size=    2511KiB time=00:00:06.56 bitrate=3132.2kbits/s speed=0.179x    
[2024-12-02T16:20:04.755Z] FFmpeg stderr: frame=  394 fps= 11 q=1.0 size=    2543KiB time=00:00:06.65 bitrate=3132.2kbits/s speed=0.178x    
[2024-12-02T16:20:05.259Z] FFmpeg stderr: frame=  400 fps= 11 q=1.0 size=    2576KiB time=00:00:06.73 bitrate=3134.3kbits/s speed=0.178x    
[2024-12-02T16:20:05.763Z] FFmpeg stderr: frame=  406 fps= 11 q=1.0 size=    2610KiB time=00:00:06.80 bitrate=3143.8kbits/s speed=0.178x    
[2024-12-02T16:20:06.264Z] FFmpeg stderr: frame=  413 fps= 11 q=2.0 size=    2649KiB time=00:00:06.98 bitrate=3107.5kbits/s speed=0.18x    
[2024-12-02T16:20:06.769Z] FFmpeg stderr: frame=  418 fps= 11 q=1.0 size=    2678KiB time=00:00:07.05 bitrate=3112.3kbits/s speed=0.179x    
[2024-12-02T16:20:07.270Z] FFmpeg stderr: frame=  421 fps= 11 q=1.0 size=    2693KiB time=00:00:07.10 bitrate=3107.2kbits/s speed=0.178x    
[2024-12-02T16:20:07.771Z] FFmpeg stderr: frame=  421 fps= 10 q=1.0 size=    2693KiB time=00:00:07.10 bitrate=3107.2kbits/s speed=0.176x    
[2024-12-02T16:20:08.273Z] FFmpeg stderr: frame=  421 fps= 10 q=1.0 size=    2693KiB time=00:00:07.10 bitrate=3107.2kbits/s speed=0.174x    
[2024-12-02T16:20:08.776Z] FFmpeg stderr: frame=  421 fps= 10 q=1.0 size=    2693KiB time=00:00:07.10 bitrate=3107.2kbits/s speed=0.172x    
[2024-12-02T16:20:09.281Z] FFmpeg stderr: frame=  430 fps= 10 q=1.0 size=    2881KiB time=00:00:07.25 bitrate=3255.1kbits/s speed=0.173x    
[2024-12-02T16:20:09.785Z] FFmpeg stderr: frame=  432 fps= 10 q=1.0 size=    2891KiB time=00:00:07.28 bitrate=3251.9kbits/s speed=0.172x    
[2024-12-02T16:20:10.285Z] FFmpeg stderr: frame=  442 fps= 10 q=1.0 size=    2943KiB time=00:00:07.45 bitrate=3236.0kbits/s speed=0.174x    
[2024-12-02T16:20:10.790Z] FFmpeg stderr: frame=  452 fps= 10 q=0.0 size=    2994KiB time=00:00:07.63 bitrate=3213.1kbits/s speed=0.176x    
[2024-12-02T16:20:11.291Z] FFmpeg stderr: frame=  462 fps= 11 q=0.0 size=    3045KiB time=00:00:07.80 bitrate=3198.5kbits/s speed=0.178x    
[2024-12-02T16:20:11.791Z] FFmpeg stderr: frame=  470 fps= 11 q=3.0 size=    3087KiB time=00:00:07.91 bitrate=3194.0kbits/s speed=0.179x    
[2024-12-02T16:20:12.294Z] FFmpeg stderr: frame=  474 fps= 11 q=6.0 size=    3109KiB time=00:00:08.00 bitrate=3183.7kbits/s speed=0.179x    
[2024-12-02T16:20:12.799Z] FFmpeg stderr: frame=  478 fps= 11 q=4.0 size=    3131KiB time=00:00:08.05 bitrate=3186.0kbits/s speed=0.178x    
[2024-12-02T16:20:13.302Z] FFmpeg stderr: frame=  481 fps= 10 q=4.0 size=    3146KiB time=00:00:08.10 bitrate=3181.7kbits/s speed=0.177x    
[2024-12-02T16:20:13.808Z] FFmpeg stderr: frame=  481 fps= 10 q=4.0 size=    3146KiB time=00:00:08.10 bitrate=3181.7kbits/s speed=0.175x    
[2024-12-02T16:20:14.312Z] FFmpeg stderr: frame=  481 fps= 10 q=4.0 size=    3146KiB time=00:00:08.10 bitrate=3181.7kbits/s speed=0.173x    
[2024-12-02T16:20:31.944Z] FFmpeg stderr: [flv @ 0x15b00e1a0] Failed to update header with correct duration.
[flv @ 0x15b00e1a0] Failed to update header with correct filesize.

[2024-12-02T16:20:31.951Z] FFmpeg stderr: [out#0/flv @ 0x15b00e060] video:4098KiB audio:140KiB subtitle:0KiB other streams:0KiB global headers:0KiB muxing overhead: 0.407756%
frame=  536 fps=8.3 q=-1.0 Lsize=    4254KiB time=00:00:08.91 bitrate=3908.4kbits/s speed=0.138x    

[2024-12-02T16:20:31.953Z] FFmpeg stderr: [libx264 @ 0x15b00eea0] frame I:9     Avg QP: 6.67  size:128244
[libx264 @ 0x15b00eea0] frame P:527   Avg QP: 7.39  size:  5771
[libx264 @ 0x15b00eea0] mb I  I16..4: 100.0%  0.0%  0.0%
[libx264 @ 0x15b00eea0] mb P  I16..4:  1.2%  0.0%  0.0%  P16..4:  2.4%  0.0%  0.0%  0.0%  0.0%    skip:96.4%
[libx264 @ 0x15b00eea0] coded y,uvDC,uvAC intra: 13.9% 9.3% 8.6% inter: 1.1% 0.8% 0.5%
[libx264 @ 0x15b00eea0] i16 v,h,dc,p: 68% 30%  1%  0%
[libx264 @ 0x15b00eea0] i8c dc,h,v,p: 71% 21%  7%  0%
[libx264 @ 0x15b00eea0] kb/s:3756.95

[2024-12-02T16:20:31.958Z] FFmpeg stderr: [aac @ 0x15a709f50] Qavg: 377.015

[2024-12-02T16:20:31.970Z] FFmpeg stderr: Exiting normally, received signal 15.

[2024-12-02T16:20:31.979Z] FFmpeg process exited with code 255
[2024-12-02T16:32:05.556Z] Server started on port 3000
[2024-12-02T16:32:44.991Z] Telegram bot started
[2024-12-02T16:32:46.917Z] Telegram bot stopped
[2024-12-02T16:33:40.615Z] Server started on port 3000
[2024-12-02T16:34:00.519Z] Telegram bot started
[2024-12-02T16:39:32.832Z] Telegram bot stopped
[2024-12-02T16:39:38.549Z] Server started on port 3000
[2024-12-02T16:39:54.133Z] Telegram bot started
[2024-12-02T16:56:33.464Z] Server started on port 3000
[2024-12-02T17:22:16.851Z] Server started on port 3000
[2024-12-02T19:34:05.751Z] Telegram bot started
[2024-12-02T19:54:13.501Z] Server started on port 3000
[2024-12-02T19:57:00.039Z] Server started on port 3000
[2024-12-02T19:59:56.749Z] Server started on port 3000
[2024-12-02T20:05:58.259Z] Server started on port 3000
[2024-12-02T20:08:34.004Z] Server started on port 3000
[2024-12-02T20:12:29.989Z] Server started on port 3000
[2024-12-02T20:14:11.983Z] Server started on port 3000
[2024-12-02T20:15:51.587Z] Server started on port 3000
[2024-12-02T20:21:41.371Z] Telegram bot started
[2024-12-02T20:21:44.347Z] Telegram bot stopped
[2024-12-02T20:24:41.052Z] Telegram bot started
[2024-12-02T20:24:45.270Z] Telegram bot stopped
